<?xml version="1.0" standalone="no"?>
<!DOCTYPE svg PUBLIC "-//W3C//DTD SVG 20010904//EN"
 "http://www.w3.org/TR/2001/REC-SVG-20010904/DTD/svg10.dtd">
<svg version="1.0" xmlns="http://www.w3.org/2000/svg"
 width="512.000000pt" height="512.000000pt" viewBox="0 0 512.000000 512.000000"
 preserveAspectRatio="xMidYMid meet">

<g transform="translate(0.000000,512.000000) scale(0.100000,-0.100000)"
fill="#000000" stroke="none">
<path d="M4870 5071 c-14 -4 -185 -99 -379 -211 -225 -128 -368 -204 -390
-207 -42 -5 -96 20 -123 57 -10 14 -22 49 -27 77 -14 88 -58 134 -129 135 -25
0 -103 -24 -216 -66 -211 -79 -248 -83 -301 -33 -29 26 -37 43 -46 93 -6 34
-20 73 -32 88 -28 34 -89 56 -131 46 -26 -6 -1742 -1083 -2114 -1327 -305
-200 -530 -450 -687 -763 -198 -396 -257 -835 -170 -1268 155 -763 751 -1362
1515 -1521 674 -141 1370 85 1838 595 44 49 430 534 856 1078 567 722 777 997
782 1022 10 55 -4 84 -80 163 -94 98 -106 117 -106 166 0 24 34 142 86 295 94
280 99 317 53 367 -44 46 -70 53 -166 47 -78 -5 -92 -3 -121 15 -34 22 -62 73
-62 113 0 13 72 216 160 451 88 235 160 442 160 460 0 82 -92 152 -170 128z
m-283 -543 c28 -27 31 -86 6 -116 -16 -17 -1169 -979 -1247 -1040 -36 -27 -75
-28 -109 -2 -30 24 -40 60 -27 94 5 15 261 235 646 556 580 484 639 530 672
530 23 0 44 -8 59 -22z m-964 -89 c25 -31 22 -91 -5 -116 -13 -11 -200 -138
-415 -282 -329 -219 -399 -261 -428 -261 -64 0 -104 65 -74 121 5 11 195 143
422 295 382 255 415 275 447 270 19 -3 43 -15 53 -27z m856 -685 c25 -20 31
-34 31 -64 0 -35 -21 -62 -366 -449 -248 -279 -373 -413 -391 -417 -57 -15
-117 42 -106 100 6 28 725 842 751 849 36 10 52 6 81 -19z m-1945 -158 c115
-30 237 -86 323 -149 81 -60 242 -204 296 -265 71 -79 295 -405 337 -489 79
-160 130 -366 130 -530 0 -184 -30 -302 -130 -503 -31 -63 -74 -167 -95 -230
-45 -136 -71 -191 -137 -287 -132 -192 -335 -330 -570 -388 -56 -15 -185 -51
-286 -81 -303 -90 -335 -96 -517 -95 -250 1 -411 39 -576 135 -76 44 -542 437
-612 515 -58 65 -131 181 -166 265 -56 134 -75 233 -75 396 0 188 13 246 124
530 105 268 193 455 266 566 59 89 178 208 269 269 152 101 744 332 945 369
14 3 104 3 200 1 148 -3 190 -7 274 -29z"/>
<path d="M2047 3445 c-129 -25 -675 -239 -811 -319 -141 -83 -237 -197 -337
-401 -88 -182 -232 -548 -254 -649 -25 -110 -17 -331 15 -431 51 -160 136
-285 275 -402 44 -37 141 -119 215 -183 184 -159 223 -188 308 -227 117 -55
208 -74 378 -80 183 -7 220 -1 479 77 110 34 247 72 305 86 200 47 359 147
472 295 69 92 97 147 138 275 18 54 65 169 105 254 99 210 110 251 109 425 -1
132 -3 147 -38 260 -51 166 -91 242 -241 454 -103 145 -150 203 -225 272 -183
169 -297 240 -453 279 -108 27 -335 35 -440 15z m-129 -290 c86 -20 136 -48
203 -112 250 -238 131 -653 -210 -733 -196 -46 -418 74 -491 267 -82 214 15
453 222 548 99 45 176 53 276 30z m1076 -536 c73 -27 147 -98 183 -174 24 -51
28 -73 28 -145 0 -71 -4 -94 -26 -141 -51 -109 -136 -175 -253 -199 -75 -15
-135 -7 -213 31 -77 37 -144 110 -173 187 -28 73 -24 193 7 263 75 169 268
245 447 178z m-1630 -426 c148 -54 232 -231 181 -384 -24 -72 -110 -159 -179
-182 -152 -52 -309 10 -377 148 -99 201 42 432 266 435 33 0 82 -8 109 -17z
m851 -350 c68 -20 136 -65 190 -125 213 -237 100 -620 -210 -703 -270 -74
-544 135 -545 415 -1 294 281 499 565 413z"/>
<path d="M1730 2977 c-19 -6 -58 -34 -87 -62 -40 -39 -55 -62 -68 -108 -72
-251 224 -438 420 -266 140 123 103 351 -70 430 -45 21 -139 24 -195 6z"/>
<path d="M2773 2445 c-47 -29 -83 -91 -83 -147 0 -89 80 -168 173 -168 80 0
144 49 168 130 21 69 -22 159 -92 195 -44 23 -117 19 -166 -10z"/>
<path d="M1203 2025 c-123 -53 -76 -245 59 -245 65 0 128 65 128 132 0 37 -34
90 -71 110 -40 21 -72 22 -116 3z"/>
<path d="M1974 1666 c-99 -46 -164 -161 -149 -265 14 -101 95 -193 195 -221
116 -33 250 35 300 152 44 103 11 238 -75 304 -77 59 -184 71 -271 30z"/>
</g>
</svg>
